<svg width="169" height="170" viewBox="0 0 169 170" fill="none" xmlns="http://www.w3.org/2000/svg">
<path d="M73.4091 144.159C76 144.17 77.767 142.472 77.7614 140.102C77.767 137.92 76.2443 136.347 74.1818 136.347C72.9034 136.347 71.7727 136.96 71.25 137.989H71.1705C71.1818 135.722 71.9773 134.312 73.4943 134.312C74.3864 134.312 75.0284 134.801 75.2159 135.614H77.642C77.4091 133.699 75.8182 132.205 73.4943 132.205C70.6193 132.205 68.7727 134.534 68.7614 138.443C68.7557 142.705 71.017 144.148 73.4091 144.159ZM73.3977 142.227C72.2614 142.227 71.4205 141.312 71.4205 140.176C71.4261 139.045 72.2841 138.125 73.4148 138.125C74.5511 138.125 75.3807 139.017 75.375 140.17C75.3807 141.335 74.5341 142.227 73.3977 142.227ZM84.5966 131.818H82.5114L78.7614 145.75H80.8466L84.5966 131.818ZM90.8026 132.364H88.4901L85.6094 134.188V136.369L88.2741 134.699H88.3423V144H90.8026V132.364ZM97.8182 144.159C100.409 144.159 102.17 142.472 102.165 140.119C102.17 137.892 100.614 136.29 98.517 136.29C97.4943 136.29 96.6136 136.716 96.2045 137.29H96.1364L96.4375 134.375H101.523V132.364H94.4091L93.858 138.5L96.0455 138.892C96.4034 138.409 97.0966 138.108 97.7841 138.108C98.9545 138.114 99.7955 138.96 99.7955 140.182C99.7955 141.392 98.9716 142.227 97.8182 142.227C96.8409 142.227 96.0511 141.614 95.9943 140.71H93.608C93.6534 142.722 95.4091 144.159 97.8182 144.159Z" fill="#1D4D4F"/>
<path fill-rule="evenodd" clip-rule="evenodd" d="M55.9233 58.8521C57.0665 56.4482 59.491 54.9165 62.1529 54.9165H104.475C106.704 54.9165 108.796 55.9939 110.091 57.8087L113.212 62.1847C115.162 64.9184 113.208 68.7128 109.85 68.7128C109.383 68.7128 108.986 69.0531 108.915 69.5145L102.865 108.525C102.105 113.426 97.8858 117.041 92.9259 117.041H74.7295C69.624 117.041 65.3283 113.217 64.7385 108.145L60.3657 70.5468C60.2441 69.5013 59.3586 68.7128 58.3061 68.7128C55.0232 68.7128 52.8613 65.2909 54.2712 62.3262L55.9233 58.8521ZM62.1529 60.8332C61.7742 60.8332 61.4292 61.0511 61.2666 61.3931L60.4594 63.0904C63.515 63.9446 65.8602 66.5739 66.2427 69.8632L70.6156 107.462C70.8584 109.55 72.6272 111.125 74.7295 111.125H92.9259C94.9682 111.125 96.7057 109.636 97.0186 107.618L103.068 68.6078C103.424 66.3143 104.889 64.4333 106.867 63.4777L105.274 61.2447C105.09 60.9865 104.792 60.8332 104.475 60.8332H62.1529Z" fill="#1D4D4F"/>
<path fill-rule="evenodd" clip-rule="evenodd" d="M84.0209 90.4167C86.4717 90.4167 88.4584 88.4299 88.4584 85.9792C88.4584 83.5284 86.4717 81.5417 84.0209 81.5417C81.5702 81.5417 79.5834 83.5284 79.5834 85.9792C79.5834 88.4299 81.5702 90.4167 84.0209 90.4167ZM84.0209 96.3333C89.7394 96.3333 94.3751 91.6976 94.3751 85.9792C94.3751 80.2607 89.7394 75.625 84.0209 75.625C78.3025 75.625 73.6667 80.2607 73.6667 85.9792C73.6667 91.6976 78.3025 96.3333 84.0209 96.3333Z" fill="#1D4D4F"/>
<path opacity="0.6" d="M53.3063 138.387C41.4517 131.543 32.1955 120.968 26.981 108.312C21.7666 95.6553 20.8872 81.6291 24.48 68.4205C28.0728 55.212 35.9358 43.5637 46.8426 35.2924C57.7495 27.0212 71.087 22.5919 84.7751 22.6954C98.4632 22.7989 111.732 27.4293 122.513 35.8646C133.293 44.2999 140.979 56.0657 144.372 69.3271C147.764 82.5884 146.673 96.5998 141.268 109.176C135.863 121.752 126.448 132.186 114.491 138.85" stroke="#1D4D4F" stroke-width="8"/>
<path d="M53.3063 138.387C41.4518 131.543 32.1955 120.968 26.981 108.312C21.7666 95.6555 20.8872 81.6293 24.48 68.4208C28.0728 55.2122 35.9358 43.564 46.8427 35.2927C57.7495 27.0214 71.087 22.5921 84.7751 22.6956" stroke="#1D4D4F" stroke-width="13"/>
</svg>
