<svg width="209" height="55" viewBox="0 0 209 55" fill="none" xmlns="http://www.w3.org/2000/svg">
<path d="M27.5 15.0876C27.421 14.8589 27.2774 14.6581 27.0866 14.5094C26.8958 14.3608 26.666 14.2707 26.425 14.2501L19.3125 13.2126L16.125 6.75006C16.0226 6.53872 15.8628 6.36049 15.6638 6.23578C15.4649 6.11107 15.2348 6.04492 15 6.04492C14.7652 6.04492 14.5351 6.11107 14.3361 6.23578C14.1371 6.36049 13.9773 6.53872 13.875 6.75006L10.6875 13.2001L3.57497 14.2501C3.34362 14.2829 3.12613 14.38 2.94716 14.5303C2.76819 14.6805 2.63492 14.8779 2.56247 15.1001C2.49615 15.3172 2.4902 15.5482 2.54526 15.7684C2.60031 15.9886 2.71429 16.1897 2.87497 16.3501L8.03747 21.3501L6.78747 28.4501C6.74285 28.6844 6.76621 28.9266 6.85481 29.1481C6.94341 29.3696 7.09354 29.5611 7.28747 29.7001C7.47649 29.8352 7.69944 29.915 7.93128 29.9304C8.16312 29.9459 8.39469 29.8964 8.59997 29.7876L15 26.4501L21.375 29.8001C21.5504 29.899 21.7485 29.9507 21.95 29.9501C22.2148 29.951 22.473 29.8678 22.6875 29.7126C22.8814 29.5736 23.0315 29.3821 23.1201 29.1606C23.2087 28.9391 23.2321 28.6969 23.1875 28.4626L21.9375 21.3626L27.1 16.3626C27.2804 16.2097 27.4138 16.0087 27.4846 15.783C27.5554 15.5573 27.5608 15.3162 27.5 15.0876ZM19.8125 20.0876C19.6659 20.2294 19.5562 20.4049 19.493 20.5988C19.4298 20.7927 19.4151 20.9991 19.45 21.2001L20.35 26.4376L15.65 23.9376C15.4691 23.8413 15.2674 23.7909 15.0625 23.7909C14.8576 23.7909 14.6558 23.8413 14.475 23.9376L9.77497 26.4376L10.675 21.2001C10.7099 20.9991 10.6951 20.7927 10.6319 20.5988C10.5687 20.4049 10.4591 20.2294 10.3125 20.0876L6.56247 16.3376L11.825 15.5751C12.0275 15.5469 12.22 15.4695 12.3856 15.3496C12.5512 15.2298 12.6849 15.0711 12.775 14.8876L15 10.1251L17.35 14.9001C17.44 15.0836 17.5737 15.2423 17.7393 15.3621C17.905 15.482 18.0975 15.5594 18.3 15.5876L23.5625 16.3501L19.8125 20.0876Z" fill="#C1A063"/>
<path d="M47.8438 29.3662C49.6309 29.3662 51.1641 28.9219 52.4434 28.0332C53.7324 27.1445 54.7236 25.8848 55.417 24.2539C56.1104 22.6133 56.457 20.6748 56.457 18.4385V18.4092C56.457 16.1631 56.1104 14.2246 55.417 12.5938C54.7236 10.9629 53.7324 9.70801 52.4434 8.8291C51.1641 7.94043 49.6309 7.49609 47.8438 7.49609C46.0566 7.49609 44.5186 7.94043 43.2295 8.8291C41.9404 9.70801 40.9492 10.9629 40.2559 12.5938C39.5723 14.2246 39.2305 16.1631 39.2305 18.4092V18.4385C39.2305 20.6748 39.5723 22.6133 40.2559 24.2539C40.9492 25.8848 41.9404 27.1445 43.2295 28.0332C44.5186 28.9219 46.0566 29.3662 47.8438 29.3662ZM47.8438 25.8213C46.9648 25.8213 46.2129 25.5283 45.5879 24.9424C44.9727 24.3564 44.5039 23.5117 44.1816 22.4082C43.8594 21.3047 43.6982 19.9814 43.6982 18.4385V18.4092C43.6982 16.8564 43.8594 15.5332 44.1816 14.4395C44.5039 13.3359 44.9727 12.4961 45.5879 11.9199C46.2129 11.334 46.9648 11.041 47.8438 11.041C48.7227 11.041 49.4697 11.334 50.085 11.9199C50.7002 12.4961 51.1689 13.3359 51.4912 14.4395C51.8232 15.5332 51.9893 16.8564 51.9893 18.4092V18.4385C51.9893 19.9814 51.8232 21.3047 51.4912 22.4082C51.1689 23.5117 50.7002 24.3564 50.085 24.9424C49.4697 25.5283 48.7227 25.8213 47.8438 25.8213Z" fill="#2E2D38"/>
<path d="M0.308239 39.8182L4.01207 46.2017V50H5.85156V46.2017L9.5554 39.8182H7.4723L4.98153 44.3224H4.8821L2.39134 39.8182H0.308239ZM10.7001 50H12.4998V42.3636H10.7001V50ZM16.1502 39.8182H14.3505V50H16.1502V39.8182ZM20.8347 50.1342C22.1472 50.1342 22.7388 49.3537 23.0222 48.7969H23.1316V50H24.9015V39.8182H23.0968V43.6264H23.0222C22.7488 43.0746 22.187 42.2642 20.8397 42.2642C19.0748 42.2642 17.6877 43.6463 17.6877 46.1918C17.6877 48.7074 19.035 50.1342 20.8347 50.1342ZM21.3368 48.6577C20.1486 48.6577 19.5222 47.6136 19.5222 46.1818C19.5222 44.7599 20.1387 43.7408 21.3368 43.7408C22.4952 43.7408 23.1316 44.7003 23.1316 46.1818C23.1316 47.6634 22.4853 48.6577 21.3368 48.6577ZM26.8192 50H28.619V42.3636H26.8192V50ZM30.3702 50H36.6394V48.5085H32.7615V48.4439L36.5101 43.5916V42.3636H30.4995V43.8551H34.3077V43.9197L30.3702 48.8565V50ZM41.8832 50H43.6531V48.7969H43.7575C44.0408 49.3537 44.6325 50.1342 45.945 50.1342C47.7447 50.1342 49.092 48.7074 49.092 46.1918C49.092 43.6463 47.7049 42.2642 45.94 42.2642C44.5927 42.2642 44.0309 43.0746 43.7575 43.6264H43.6829V39.8182H41.8832V50ZM43.6481 46.1818C43.6481 44.7003 44.2844 43.7408 45.4428 43.7408C46.641 43.7408 47.2575 44.7599 47.2575 46.1818C47.2575 47.6136 46.631 48.6577 45.4428 48.6577C44.2944 48.6577 43.6481 47.6634 43.6481 46.1818ZM52.8194 50.1541C54.0176 50.1541 54.7335 49.5923 55.0616 48.951H55.1213V50H56.8514V44.8892C56.8514 42.8707 55.2058 42.2642 53.7491 42.2642C52.1433 42.2642 50.9103 42.9801 50.5126 44.3722L52.193 44.6108C52.372 44.0888 52.8791 43.6413 53.7591 43.6413C54.5943 43.6413 55.0517 44.0689 55.0517 44.8196V44.8494C55.0517 45.3665 54.5098 45.3913 53.1625 45.5355C51.6809 45.6946 50.264 46.1371 50.264 47.8572C50.264 49.3587 51.3627 50.1541 52.8194 50.1541ZM53.2868 48.8317C52.536 48.8317 51.9991 48.4886 51.9991 47.8274C51.9991 47.1364 52.6007 46.848 53.4061 46.7337C53.8784 46.669 54.823 46.5497 55.0566 46.3608V47.2607C55.0566 48.1108 54.3706 48.8317 53.2868 48.8317ZM58.661 50H60.4608V47.4347L61.117 46.7337L63.4537 50H65.6064L62.4743 45.6598L65.4324 42.3636H63.3294L60.585 45.4311H60.4608V39.8182H58.661V50ZM66.6317 50H68.4315V42.3636H66.6317V50ZM67.5366 41.2798C68.1083 41.2798 68.5756 40.8423 68.5756 40.3054C68.5756 39.7635 68.1083 39.326 67.5366 39.326C66.9599 39.326 66.4925 39.7635 66.4925 40.3054C66.4925 40.8423 66.9599 41.2798 67.5366 41.2798ZM71.4007 52.8636C72.8027 52.8636 73.6131 52.1428 74.0456 50.9247L77.1131 42.3736L75.1891 42.3636L73.4242 48.1307H73.3446L71.5847 42.3636H69.6756L72.4448 50.1591L72.2907 50.5717C71.9576 51.4418 71.4306 51.5014 70.6451 51.2727L70.2275 52.6747C70.4711 52.7741 70.9086 52.8636 71.4007 52.8636ZM81.4831 50.1491C83.263 50.1491 84.486 49.2791 84.8042 47.9517L83.1238 47.7628C82.8801 48.4091 82.2836 48.7472 81.508 48.7472C80.3446 48.7472 79.574 47.9815 79.5591 46.674H84.8787V46.1222C84.8787 43.4425 83.2679 42.2642 81.3887 42.2642C79.2012 42.2642 77.7743 43.87 77.7743 46.2266C77.7743 48.6229 79.1813 50.1491 81.4831 50.1491ZM79.5641 45.4609C79.6188 44.4865 80.3397 43.6662 81.4135 43.6662C82.4476 43.6662 83.1436 44.4219 83.1536 45.4609H79.5641ZM92.4368 44.3821C92.1882 43.0895 91.1541 42.2642 89.3643 42.2642C87.5249 42.2642 86.272 43.169 86.277 44.581C86.272 45.6946 86.9581 46.4304 88.4247 46.7337L89.7273 47.0071C90.4283 47.1612 90.7564 47.4446 90.7564 47.8771C90.7564 48.3991 90.1896 48.7919 89.3345 48.7919C88.5092 48.7919 87.9723 48.4339 87.8182 47.7479L86.0632 47.9169C86.2869 49.3189 87.4652 50.1491 89.3395 50.1491C91.2486 50.1491 92.5959 49.1598 92.6009 47.7131C92.5959 46.6243 91.8949 45.9581 90.4531 45.6449L89.1506 45.3665C88.375 45.1925 88.0668 44.924 88.0717 44.4815C88.0668 43.9645 88.6385 43.6065 89.3892 43.6065C90.2195 43.6065 90.657 44.0589 90.7962 44.5611L92.4368 44.3821ZM94.0849 50H95.8846V42.3636H94.0849V50ZM94.9897 41.2798C95.5614 41.2798 96.0288 40.8423 96.0288 40.3054C96.0288 39.7635 95.5614 39.326 94.9897 39.326C94.413 39.326 93.9457 39.7635 93.9457 40.3054C93.9457 40.8423 94.413 41.2798 94.9897 41.2798Z" fill="#2E2D38"/>
<path d="M167.844 29.3662C169.631 29.3662 171.164 28.9219 172.443 28.0332C173.732 27.1445 174.724 25.8848 175.417 24.2539C176.11 22.6133 176.457 20.6748 176.457 18.4385V18.4092C176.457 16.1631 176.11 14.2246 175.417 12.5938C174.724 10.9629 173.732 9.70801 172.443 8.8291C171.164 7.94043 169.631 7.49609 167.844 7.49609C166.057 7.49609 164.519 7.94043 163.229 8.8291C161.94 9.70801 160.949 10.9629 160.256 12.5938C159.572 14.2246 159.23 16.1631 159.23 18.4092V18.4385C159.23 20.6748 159.572 22.6133 160.256 24.2539C160.949 25.8848 161.94 27.1445 163.229 28.0332C164.519 28.9219 166.057 29.3662 167.844 29.3662ZM167.844 25.8213C166.965 25.8213 166.213 25.5283 165.588 24.9424C164.973 24.3564 164.504 23.5117 164.182 22.4082C163.859 21.3047 163.698 19.9814 163.698 18.4385V18.4092C163.698 16.8564 163.859 15.5332 164.182 14.4395C164.504 13.3359 164.973 12.4961 165.588 11.9199C166.213 11.334 166.965 11.041 167.844 11.041C168.723 11.041 169.47 11.334 170.085 11.9199C170.7 12.4961 171.169 13.3359 171.491 14.4395C171.823 15.5332 171.989 16.8564 171.989 18.4092V18.4385C171.989 19.9814 171.823 21.3047 171.491 22.4082C171.169 23.5117 170.7 24.3564 170.085 24.9424C169.47 25.5283 168.723 25.8213 167.844 25.8213Z" fill="#2E2D38"/>
<path d="M125.849 39.8182H124.004V50H125.849V39.8182ZM124.929 38.7344C125.501 38.7344 125.968 38.2969 125.968 37.7599C125.968 37.218 125.501 36.7805 124.929 36.7805C124.352 36.7805 123.885 37.218 123.885 37.7599C123.885 38.2969 124.352 38.7344 124.929 38.7344ZM127.767 50H129.566V47.4347L130.222 46.7337L132.559 50H134.712L131.58 45.6598L134.538 42.3636H132.435L129.691 45.4311H129.566V39.8182H127.767V50ZM135.737 50H137.537V45.5107C137.537 44.5412 138.268 43.8551 139.257 43.8551C139.56 43.8551 139.938 43.9098 140.092 43.9595V42.304C139.928 42.2741 139.645 42.2543 139.446 42.2543C138.571 42.2543 137.84 42.7514 137.562 43.6364H137.482V42.3636H135.737V50ZM143.335 50.1541C144.533 50.1541 145.249 49.5923 145.577 48.951H145.637V50H147.367V44.8892C147.367 42.8707 145.721 42.2642 144.265 42.2642C142.659 42.2642 141.426 42.9801 141.028 44.3722L142.709 44.6108C142.888 44.0888 143.395 43.6413 144.275 43.6413C145.11 43.6413 145.567 44.0689 145.567 44.8196V44.8494C145.567 45.3665 145.025 45.3913 143.678 45.5355C142.197 45.6946 140.78 46.1371 140.78 47.8572C140.78 49.3587 141.878 50.1541 143.335 50.1541ZM143.802 48.8317C143.052 48.8317 142.515 48.4886 142.515 47.8274C142.515 47.1364 143.116 46.848 143.922 46.7337C144.394 46.669 145.339 46.5497 145.572 46.3608V47.2607C145.572 48.1108 144.886 48.8317 143.802 48.8317ZM149.177 50H150.976V45.3565C150.976 44.4169 151.603 43.7805 152.378 43.7805C153.139 43.7805 153.661 44.2926 153.661 45.0781V50H155.426V45.2372C155.426 44.3771 155.938 43.7805 156.808 43.7805C157.534 43.7805 158.111 44.2081 158.111 45.1527V50H159.915V44.8743C159.915 43.169 158.931 42.2642 157.529 42.2642C156.42 42.2642 155.575 42.8111 155.237 43.6612H155.157C154.864 42.7962 154.123 42.2642 153.094 42.2642C152.07 42.2642 151.305 42.7912 150.986 43.6612H150.897V42.3636H149.177V50ZM165.214 50H167.013V42.3636H165.214V50ZM166.119 41.2798C166.69 41.2798 167.158 40.8423 167.158 40.3054C167.158 39.7635 166.69 39.326 166.119 39.326C165.542 39.326 165.075 39.7635 165.075 40.3054C165.075 40.8423 165.542 41.2798 166.119 41.2798ZM172.623 50.1293C174.293 49.9751 175.347 48.8864 175.466 47.3899H173.746C173.592 48.2102 173.001 48.6825 172.21 48.6825C171.086 48.6825 170.361 47.7429 170.361 46.1818C170.361 44.6406 171.101 43.7159 172.21 43.7159C173.075 43.7159 173.607 44.2727 173.746 45.0085H175.466C175.342 43.353 174.05 42.2642 172.185 42.2642C169.948 42.2642 168.536 43.88 168.536 46.2116C168.536 48.3295 169.694 49.8757 171.643 50.1143L171.464 50.9595C172.17 51.0341 172.488 51.2031 172.479 51.6257C172.469 52.0632 171.986 52.2571 171.226 52.2571L171.246 53.142C172.817 53.142 173.697 52.5206 173.692 51.581C173.692 50.8551 173.194 50.4773 172.573 50.3828L172.623 50.1293ZM180.325 50.1491C182.105 50.1491 183.328 49.2791 183.646 47.9517L181.966 47.7628C181.722 48.4091 181.125 48.7472 180.35 48.7472C179.186 48.7472 178.416 47.9815 178.401 46.674H183.721V46.1222C183.721 43.4425 182.11 42.2642 180.23 42.2642C178.043 42.2642 176.616 43.87 176.616 46.2266C176.616 48.6229 178.023 50.1491 180.325 50.1491ZM178.406 45.4609C178.461 44.4865 179.181 43.6662 180.255 43.6662C181.289 43.6662 181.985 44.4219 181.995 45.4609H178.406ZM188.574 50.1491C190.493 50.1491 191.716 49.0107 191.845 47.3899H190.125C189.971 48.2102 189.379 48.6825 188.589 48.6825C187.465 48.6825 186.74 47.7429 186.74 46.1818C186.74 44.6406 187.48 43.7159 188.589 43.7159C189.454 43.7159 189.986 44.2727 190.125 45.0085H191.845C191.721 43.353 190.428 42.2642 188.564 42.2642C186.327 42.2642 184.915 43.88 184.915 46.2116C184.915 48.5234 186.292 50.1491 188.574 50.1491ZM196.704 50.1491C198.484 50.1491 199.707 49.2791 200.025 47.9517L198.344 47.7628C198.101 48.4091 197.504 48.7472 196.729 48.7472C195.565 48.7472 194.795 47.9815 194.78 46.674H200.099V46.1222C200.099 43.4425 198.489 42.2642 196.609 42.2642C194.422 42.2642 192.995 43.87 192.995 46.2266C192.995 48.6229 194.402 50.1491 196.704 50.1491ZM194.785 45.4609C194.839 44.4865 195.56 43.6662 196.634 43.6662C197.668 43.6662 198.364 44.4219 198.374 45.4609H194.785ZM201.622 50H203.422V47.4347L204.078 46.7337L206.415 50H208.567L205.435 45.6598L208.393 42.3636H206.29L203.546 45.4311H203.422V39.8182H201.622V50Z" fill="#2E2D38"/>
<path fill-rule="evenodd" clip-rule="evenodd" d="M125.503 7.16295C125.986 6.14718 127.01 5.5 128.135 5.5H146.018C146.96 5.5 147.844 5.95522 148.391 6.72207L149.709 8.57107C150.533 9.72614 149.708 11.3294 148.289 11.3294C148.092 11.3294 147.924 11.4732 147.894 11.6682L145.338 28.1513C145.016 30.2223 143.233 31.75 141.138 31.75H133.449C131.292 31.75 129.477 30.1338 129.228 27.991L127.38 12.1043C127.329 11.6626 126.954 11.3294 126.51 11.3294C125.123 11.3294 124.209 9.88354 124.805 8.63084L125.503 7.16295ZM128.135 8C127.975 8 127.829 8.09208 127.761 8.23661L127.419 8.95377C128.711 9.31467 129.702 10.4256 129.863 11.8155L131.711 27.7022C131.813 28.5845 132.561 29.25 133.449 29.25H141.138C142.001 29.25 142.735 28.6209 142.867 27.7682L145.423 11.285C145.573 10.316 146.193 9.5212 147.028 9.1174L146.355 8.17388C146.277 8.06477 146.152 8 146.018 8H128.135Z" fill="#1D4D4F"/>
<path fill-rule="evenodd" clip-rule="evenodd" d="M137.375 20.5C138.411 20.5 139.25 19.6605 139.25 18.625C139.25 17.5895 138.411 16.75 137.375 16.75C136.339 16.75 135.5 17.5895 135.5 18.625C135.5 19.6605 136.339 20.5 137.375 20.5ZM137.375 23C139.791 23 141.75 21.0412 141.75 18.625C141.75 16.2088 139.791 14.25 137.375 14.25C134.959 14.25 133 16.2088 133 18.625C133 21.0412 134.959 23 137.375 23Z" fill="#1D4D4F"/>
</svg>
