<svg width="358" height="150" viewBox="0 0 358 150" fill="none" xmlns="http://www.w3.org/2000/svg">
<mask id="mask0_415_539" style="mask-type:alpha" maskUnits="userSpaceOnUse" x="4" y="0" width="354" height="142">
<rect x="4.5" y="0.5" width="353" height="141" rx="19.5" fill="#4AA366" stroke="black"/>
</mask>
<g mask="url(#mask0_415_539)">
<path opacity="0.2" d="M55.2034 19.9472C59.8965 22.6698 64.8747 26.1736 68.6644 29.8867L67.1756 31.3924C59.6976 30.5922 51.8215 31.5908 44.7325 31.7009C43.942 30.898 42.3492 29.691 43.8326 28.6824L55.2034 19.9472ZM187.43 113.44C187.53 116.837 187.847 119.755 186.53 123.232C172.868 127.142 163.894 112.584 150.639 114.78L152.137 122.326C164.401 122.732 172.061 134.568 184.73 134.059C182.931 137.677 185.533 147.21 177.559 143.399C169.281 141.398 163.297 134.059 154.226 134.059C153.131 136.081 153.824 138.882 153.632 141.274C163.201 142.785 170.083 150.925 179.65 152.428C178.75 155.737 177.858 159.442 175.164 161.46C167.381 159.554 161.302 152.519 153.017 152.72L151.541 159.649C159.415 159.853 164.503 166.865 171.579 168.969C171.774 171.892 169.178 174.504 167.683 177.113C161.401 175.214 156.61 169.782 149.432 170.183C149.333 167.461 150.938 164.37 150.332 161.46C142.271 163.873 136.865 156.334 130.89 151.812C130.718 137.012 115.238 127.304 114.421 113.44C114.264 110.676 114.683 107.725 115.934 104.554C121.021 92.7148 119.423 77.3436 113.845 66.3053C112.15 63.4005 109.146 61.1073 106.347 59.3996C110.442 68.1348 115.433 78.4559 112.942 89.1929C112.653 97.4843 107.793 105.447 107.737 113.44C107.718 116.29 108.322 119.14 109.951 122.017C116.437 133.774 128.105 144.902 123.718 159.647C122.511 164.175 118.919 167.677 118.022 172.286C125.61 178.611 132.784 185.738 142.851 186.139C146.438 183.833 144.446 173.608 151.825 178.324L162.6 183.749C161.815 186.652 159.4 189.253 157.213 191.252C153.125 189.25 149.137 186.849 144.04 187.045C142.537 188.65 141.243 190.451 141.358 192.754C144.945 193.349 148.236 194.873 151.232 196.984C149.841 199.999 147.13 201.889 144.637 204.199L136.279 201.191C134.883 203.201 131.984 205.313 133.002 207.518C134.888 208.331 136.98 209.43 138.368 210.838C134.679 214.852 130.003 217.434 125.503 220.158C121.627 207.408 108.857 198.469 109.954 183.725L109.36 183.129C106.358 186.525 107.361 191.957 107.555 196.365C111.147 205.6 119.716 212.733 121.016 222.86C119.516 225.466 116.133 225.986 113.538 227.089C113.839 208.83 86.3211 194.982 103.968 176.513C109.853 167.469 119.714 158.838 116.22 146.387C112.633 134.366 99.9452 126.917 100.057 113.44L100.077 112.389C102.967 98.335 111.745 83.3806 104.564 68.4298C102.562 62.4162 98.0907 55.5827 92.0083 53.0694C101.076 63.5159 104.672 80.5606 99.4836 94.6174C96.869 100.209 93.2694 106.87 92.9082 113.443H92.8866C92.6939 116.875 93.3904 120.289 95.5909 123.526C102.476 134.77 114.435 147.121 107.556 161.774C99.7794 173.51 86.2189 185.449 93.7919 200.908C99.2757 210.14 107.758 219.353 105.47 230.702L96.4961 233.71C102.479 212.541 73.1603 200.102 85.4337 178.926C93.0112 167.586 106.564 156.947 98.892 141.897C94.3055 132.571 84.8287 127.052 85.1281 115.399L85.4543 113.442C88.5422 96.9142 101.025 81.2696 92.2969 63.6079C90.0032 58.3928 85.4194 53.0757 80.3318 50.0626L80.0244 50.3721C90.2004 60.3071 93.2963 76.6535 87.8099 89.7938C85.25 97.5033 79.6318 105.183 78.4899 113.445C77.9467 117.34 78.4047 121.377 80.6411 125.63C87.1215 135.958 98.486 146.914 91.3943 160.267C83.9261 171.297 71.4582 182.028 76.4382 196.371C81.9237 208.919 93.3778 220.873 87.1932 236.433L77.9333 238.538C85.3091 223.374 74.2494 208.328 67.7708 195.177C59.8894 176.309 84.7041 167.274 85.1021 150.024C85.008 138.89 73.2473 132.568 70.7618 122.332C65.6715 118.01 60.3958 124.051 54.3106 122.93C49.8183 123.838 42.9184 116.706 40.2365 124.437C37.0429 135.771 22.4938 144.104 28.8882 157.547C34.9724 169.494 49.6148 178.23 44.7235 193.691C40.3441 208.132 25.8774 221.882 34.8496 238.538C31.164 237.336 24.2811 239.637 24.3806 233.711C18.6997 213.54 42.9255 201.789 35.443 181.629C31.9608 169.281 16.0949 162.459 19.5879 147.608C22.1702 135.382 35.8006 126.836 33.8888 113.444C33.7337 112.322 33.4594 111.175 33.0677 109.979C27.9802 95.5276 17.6008 81.073 23.7872 64.207C25.4857 59.3896 28.8783 55.276 31.8595 50.9702C21.9874 56.2873 17.0074 67.5304 17.2118 78.9683C16.7815 91.4067 25.9106 102.062 27.2094 113.444C27.7203 118.037 26.9727 122.741 23.7872 127.731C17.3113 136.575 8.84189 145.9 12.7248 157.546C16.4167 169.292 30.973 176.408 30.0758 190.062C29.9772 206.212 11.331 216.268 16.6157 234.33L7.33517 231.3C3.65038 215.25 20.5981 207.038 20.7926 192.187C23.1911 175.109 1.54939 168.772 2.84817 152.125C2.75495 139.476 13.8174 131.465 18.7033 120.826C19.5413 118.237 19.8201 115.79 19.708 113.445C19.1093 101.681 8.57748 92.4839 10.3253 79.2579C10.9133 69.524 14.2037 60.9918 20.4878 53.6711C11.8177 57.1767 8.23597 67.2218 5.84099 75.653C1.68473 89.1722 11.6061 101.333 12.6011 113.446C13.0421 118.794 11.7433 124.112 6.7427 129.549C-0.440445 138.069 -7.72488 148.819 -2.53874 160.269C2.95303 172.903 20.2064 182.737 12.723 198.496C8.64021 208.432 -1.13599 215.954 -0.734444 227.692C-3.32482 226.587 -6.012 225.487 -8.21338 223.485C-8.21338 208.535 12.9166 199.197 2.84906 183.442C1.95722 186.551 1.7654 190.775 1.06717 194.287C-2.4267 203.424 -9.90205 210.737 -12.6995 220.182C-17.3774 218.366 -22.2686 214.548 -26.1596 210.534L-20.77 207.214C-21.3687 205.204 -22.9615 203.5 -24.3544 201.794C-27.8545 201.298 -30.1527 203.61 -33.038 204.515C-35.5307 202.303 -37.9364 200.295 -39.9235 197.586C-38.1345 192.458 -24.1554 196.698 -31.2373 188.266C-36.0183 185.258 -40.8172 189.555 -45.0039 191.562L-50.6794 184.347C-45.7936 181.339 -40.9203 177.114 -34.8432 178.326C-33.3454 181.04 -33.2414 185.032 -30.3562 186.45C-20.0843 186.248 -12.8061 178.429 -4.93193 172.305C-10.4201 164.086 -14.8874 152.739 -10.0123 142.8C-6.10612 132.839 4.07165 124.45 4.53326 113.439C4.63723 110.933 4.24912 108.296 3.16009 105.458C-2.22144 91.5069 -4.12076 72.6517 6.15112 60.3035C0.566124 61.8136 -2.72697 68.8195 -4.62449 74.1393C-10.7993 87.7622 -2.98959 100.383 -2.7198 113.438C-2.68305 115.787 -2.87218 118.14 -3.43776 120.511C-8.72428 131.248 -17.2896 140.669 -18.6806 153.024C-24.7649 156.93 -29.7601 163.761 -38.4294 161.456C-38.7341 163.762 -38.0359 167.277 -37.2408 169.888C-44.1157 169.598 -48.8034 174.698 -54.5919 177.106C-57.6752 176.11 -58.4775 172.099 -59.6714 169.291C-52.896 166.988 -48.0084 160.152 -40.2292 160.26C-39.3275 157.739 -40.7347 155.428 -41.1318 153.022C-50.8085 148.699 -66.1473 174.392 -67.4371 152.117C-57.7676 151.514 -51.5883 142.48 -42.012 141.58L-41.726 134.365C-52.594 133.26 -59.5853 144.505 -70.4488 143.396L-72.8446 133.768C-60.2782 134.558 -52.7912 123.224 -40.8234 122.614C-39.2334 120.509 -39.0416 117.398 -38.735 114.49C-51.798 112.777 -60.7622 127.347 -74.6265 122.922C-74.6265 122.922 -75.1043 116.858 -75.3633 113.439H-75.3445C-75.4386 112.102 -75.5282 111.17 -75.5282 111.17C-63.1652 115.999 -52.3027 107.061 -41.726 102.448C-39.0362 101.638 -34.8414 103.042 -33.6349 100.035C-33.7398 97.7261 -29.5567 95.027 -33.0389 93.4158C-48.5014 91.3039 -58.7732 110.074 -74.6283 101.539L-75.8177 99.1262C-72.5193 53.7721 -47.1049 9.92374 -4.93193 -11.654C12.1484 -21.4781 33.368 -26.4858 54.7678 -26.6635C80.5936 -26.8791 106.689 -20.0609 126.102 -6.2305C144.953 5.40774 162.985 24.5877 172.772 44.0581C182.131 61.1172 186.439 80.2593 187.725 100.638C171.369 113.077 160.396 88.9196 143.741 94.326C144.638 96.9404 145.134 99.6449 147.038 101.852C161.8 101.748 171.965 117.304 187.417 111.173L187.43 113.44ZM-0.45031 57.5827C-10.8217 50.7564 -23.9708 57.184 -33.6367 60.9016C-34.5339 51.7649 -38.2205 43.4411 -45.9074 37.4203C-46.6531 37.0469 -47.6839 36.2611 -48.6125 36.2034C-49.1682 36.1682 -49.6971 36.3937 -50.1076 37.1091C-46.6236 58.6815 -60.5569 73.7342 -70.4308 90.0987C-67.1431 92.8032 -61.8611 92.3991 -57.8733 91.6043C-47.4061 87.3914 -37.4353 80.059 -24.972 82.5723C-21.2863 76.2502 -15.0936 70.1267 -10.0159 65.1091C-6.9137 62.4072 -2.65168 60.6914 -0.45031 57.5827ZM31.2635 71.1307C31.0645 72.4298 31.3629 74.7455 33.3528 73.8506C36.4487 69.5358 41.9297 72.9494 45.3178 73.2534V72.0391C43.4588 69.1009 39.6342 67.6251 35.7504 67.7721C34.8541 67.8037 33.9435 67.9354 33.0668 68.1402C31.7672 68.4307 30.8628 69.6278 31.2635 71.1307ZM80.0199 58.2024C77.2359 51.9787 70.8541 49.46 65.0629 47.9553C62.2243 47.6034 59.2781 47.3653 56.356 47.3373C55.8084 47.3319 55.2616 47.3247 54.7167 47.3373C46.5431 47.5033 38.7334 49.6152 33.9623 56.3865C33.2775 58.2981 30.2667 60.9828 33.0624 62.6959C39.3447 62.2918 46.5135 61.4988 50.7011 66.925C50.7011 71.7469 53.7944 78.1618 48.6118 80.4704C44.3175 76.4686 39.2318 82.1736 34.5592 78.962C32.3623 77.6557 30.9721 79.1803 30.0722 81.0865C28.7735 93.5276 35.2458 107.258 46.8102 114.18C51.4971 115.881 57.7973 117.5 62.6886 115.086C74.4537 109.572 79.327 96.9349 81.5177 85.2922C81.2237 83.0766 81.3285 78.759 78.2398 78.6544C74.7522 80.8745 69.6656 79.5628 65.9691 78.6544C63.7839 79.3644 63.6835 82.5822 61.1962 83.1921L59.6805 81.9751C58.3826 76.464 57.5822 68.6337 62.6725 64.8204C68.3605 62.5119 75.0408 61.5033 80.9234 63.3148C82.0214 61.4095 80.3265 59.9093 80.0199 58.2024ZM74.0172 68.0978C73.6219 68.1077 73.2374 68.1276 72.8484 68.1402C70.7591 69.543 64.6703 68.5344 66.8681 73.2534C70.6596 70.2349 75.9443 72.3504 79.7331 73.8506C81.134 73.1506 80.8302 71.7451 80.9225 70.5335C79.7062 68.2557 76.7994 68.0419 74.0172 68.0978ZM117.43 25.6675C110.049 25.2733 103.869 29.4898 97.0877 31.3978C96.497 25.5899 100.881 19.4564 101.881 13.626C90.9165 14.336 82.232 20.9783 73.1612 26.2846C71.062 21.1795 68.9566 16.0482 66.8717 10.9242L78.8368 -0.519188L79.1433 -2.02663L62.9817 -2.93236C60.1977 -7.84169 59.1006 -13.7551 55.8102 -18.2711C53.1176 -13.1534 51.3088 -7.73704 48.619 -2.62383L32.4762 -1.7154V-0.519188L44.728 10.6148C43.2303 16.3378 41.8383 22.5561 38.1526 26.8818C30.9739 22.5543 23.8975 17.8443 16.0268 14.8394C14.1329 14.2241 11.4332 13.2237 9.73821 14.5309C12.2273 20.0518 15.7131 25.9905 15.1269 32.0166C11.8347 31.4068 9.24703 29.2823 6.15382 28.3892C2.45468 27.3734 -1.93462 25.3888 -5.5235 26.5958C0.460358 35.0207 5.34443 43.838 7.034 53.9769C26.8849 44.3342 50.0352 39.0306 74.0656 43.1515C85.3297 44.9557 95.6877 49.5737 105.76 53.3779C106.153 42.7464 112.833 34.2034 117.43 25.6675ZM151.519 83.4789C161.681 86.1862 171.876 97.3301 182.637 90.0996C173.265 74.4469 159.316 59.9922 163.195 39.5232C163.601 38.1258 162.704 36.7113 161.413 36.5128C155.334 39.0135 150.625 45.0423 148.219 50.9684C147.23 54.4731 146.644 58.1988 145.25 61.5024C137.966 57.6873 130.194 53.9914 121.321 54.8845C118.121 55.2859 113.533 55.497 112.943 58.8033C123.013 64.2196 131.294 73.2588 137.465 82.8844C141.762 82.179 147.032 82.7816 151.519 83.4789ZM45.0301 97.6251L45.3169 99.4392C49.2132 102.052 50.4116 106.479 55.8057 106.077C60.5894 106.363 64.1783 101.852 66.5616 98.2421C60.0883 97.3427 52.2114 98.7347 45.0301 97.6251ZM50.417 89.5015C50.6115 90.3053 49.9231 91.5096 51.0104 91.9156C54.2013 91.2182 59.9817 93.6242 61.7636 89.8109C60.5195 88.4081 58.4884 87.7712 56.3569 87.7712C54.2264 87.7712 52.0151 88.3964 50.417 89.5015Z" fill="#1D4D4F"/>
<path opacity="0.2" d="M49.076 90.8529C51.9012 91.5259 52.6004 92.5344 54.8331 92.8159C57.2066 92.7735 56.8642 92.2882 61.0043 90.8502C61.2759 90.7537 61.6497 90.1501 61.1863 89.6873C58.6156 87.119 56.8391 88.9539 55.2275 89.0026C53.0898 89.0261 51.0847 87.1605 48.9962 89.5854C48.6404 90.078 48.4549 90.5615 49.076 90.8529Z" fill="#1D4D4F"/>
</g>
</svg>
